<svg xmlns="http://www.w3.org/2000/svg" width="800" height="300" viewBox="0 0 800 300">
  <style>
    text { font-family: ui-monospace, "JetBrains Mono", "SF Mono", Menlo, Consolas, monospace; font-size: 14px; dominant-baseline: middle; }
    
    @keyframes blink { 0%,49% { opacity: 1 } 50%,100% { opacity: 0 } }
    
  </style>
  <rect width="100%" height="100%" fill="#1e1e1e" rx="14" ry="14"/>

  <!-- Title bar -->
  <rect x="0" y="0" width="800" height="30" fill="#2c2c2c" rx="14" ry="14"/>
  <rect x="0" y="16" width="800" height="14" fill="#2c2c2c"/>
  <g opacity="0.55">
    <circle cx="22" cy="15" r="5.5" fill="#ff5f57"/>
    <circle cx="40" cy="15" r="5.5" fill="#febc2e"/>
    <circle cx="58" cy="15" r="5.5" fill="#28c840"/>
  </g>
  <text x="400" y="16" fill="#6a737d" font-family="ui-monospace, monospace" font-size="11" text-anchor="middle" dominant-baseline="middle">stack.ts</text>

  <!-- Tab bar -->
  <rect x="0" y="30" width="800" height="32" fill="#2c2c2c"/>
  <rect x="0" y="30" width="156" height="32" fill="#252525"/>
  <rect x="156" y="30" width="160" height="32" fill="#1e1e1e"/>
  <rect x="156" y="30" width="160" height="2" fill="#569cd6"/>
  <text x="172" y="46" fill="#d4d4d4" font-family="ui-monospace, monospace" font-size="11" dominant-baseline="middle">stack.ts</text>
  <text x="300" y="46" fill="#6a737d" font-family="ui-monospace, monospace" font-size="11" dominant-baseline="middle">×</text>

  <!-- Sidebar -->
  <rect x="0" y="62" width="156" height="238" fill="#252525"/>
  <text x="20" y="74" fill="#6a737d" font-family="ui-monospace, monospace" font-size="9" letter-spacing="1.2" dominant-baseline="middle">EXPLORER</text>
  <text x="20" y="100" fill="#6a737d" font-size="12" dominant-baseline="middle">header.svg</text>
  <text x="20" y="122" fill="#6a737d" font-size="12" dominant-baseline="middle">about.svg</text>
  <rect x="0" y="130" width="156" height="22" fill="#d4d4d4" fill-opacity="0.06"/><text x="20" y="144" fill="#d4d4d4" font-size="12" dominant-baseline="middle">skills.svg</text>
  <text x="20" y="166" fill="#6a737d" font-size="12" dominant-baseline="middle">gh-stats.svg</text>
  <text x="20" y="188" fill="#6a737d" font-size="12" dominant-baseline="middle">footer.svg</text>
  <line x1="156" y1="62" x2="156" y2="300" stroke="#353535" stroke-width="1"/>

  <!-- Editor body -->
  <g class="cl0">
    <text x="184" y="92" fill="#6a737d" text-anchor="end" font-size="12">1</text>
    <g transform="translate(194 92)"><text x="0" fill="#569cd6" font-weight="600">const</text><text x="50.400000000000006" fill="#d4d4d4">stack</text><text x="100.80000000000001" fill="#d4d4d4">=</text><text x="117.60000000000001" fill="#d4d4d4">[</text></g>
  </g>
  <g class="cl1">
    <text x="184" y="114" fill="#6a737d" text-anchor="end" font-size="12">2</text>
    <g transform="translate(194 114)"><text x="16.8" fill="#ce9178">&quot;TypeScript&quot;</text><text x="117.60000000000001" fill="#d4d4d4">,</text></g>
  </g>
  <g class="cl2">
    <text x="184" y="136" fill="#6a737d" text-anchor="end" font-size="12">3</text>
    <g transform="translate(194 136)"><text x="16.8" fill="#ce9178">&quot;Python&quot;</text><text x="84" fill="#d4d4d4">,</text></g>
  </g>
  <g class="cl3">
    <text x="184" y="158" fill="#6a737d" text-anchor="end" font-size="12">4</text>
    <g transform="translate(194 158)"><text x="16.8" fill="#ce9178">&quot;Swift&quot;</text><text x="75.60000000000001" fill="#d4d4d4">,</text></g>
  </g>
  <g class="cl4">
    <text x="184" y="180" fill="#6a737d" text-anchor="end" font-size="12">5</text>
    <g transform="translate(194 180)"><text x="16.8" fill="#ce9178">&quot;Postgres&quot;</text><text x="100.8" fill="#d4d4d4">,</text></g>
  </g>
  <g class="cl5">
    <text x="184" y="202" fill="#6a737d" text-anchor="end" font-size="12">6</text>
    <g transform="translate(194 202)"><text x="16.8" fill="#ce9178">&quot;Kubernetes&quot;</text><text x="117.60000000000001" fill="#d4d4d4">,</text></g>
  </g>
  <g class="cl6">
    <text x="184" y="224" fill="#6a737d" text-anchor="end" font-size="12">7</text>
    <g transform="translate(194 224)"><text x="16.8" fill="#ce9178">&quot;FastAPI&quot;</text><text x="92.4" fill="#d4d4d4">,</text></g>
  </g>
  <g class="cl7">
    <text x="184" y="246" fill="#6a737d" text-anchor="end" font-size="12">8</text>
    <g transform="translate(194 246)"><text x="16.8" fill="#ce9178">&quot;React&quot;</text></g>
  </g>
  <g class="cl8">
    <text x="184" y="268" fill="#6a737d" text-anchor="end" font-size="12">9</text>
    <g transform="translate(194 268)"><text x="0" fill="#d4d4d4">]</text><text x="16.8" fill="#569cd6" font-weight="600">as</text><text x="42" fill="#569cd6" font-weight="600">const</text><text x="84" fill="#d4d4d4">;</text></g>
  </g>

  <!-- Blinking cursor at end of last line -->
  <rect x="286.4" y="256" width="2" height="17" fill="#d4d4d4" style="animation: blink 1s steps(1) infinite"/>
</svg>